<svg width="256" height="47" viewBox="0 0 256 47" fill="none" xmlns="http://www.w3.org/2000/svg">
<g clip-path="url(#clip0_232_397)">
<path fill-rule="evenodd" clip-rule="evenodd" d="M97.822 0.141389H74.5528C74.0244 0.141389 73.5952 0.567114 73.5952 1.09331V1.85961C73.5952 2.38411 74.0244 2.81153 74.5528 2.81153H84.8202V45.7024C84.8202 46.2269 85.2511 46.6527 85.7761 46.6527H86.5953C87.1237 46.6527 87.5529 46.2269 87.5529 45.7024V2.81153H97.822C98.3487 2.81153 98.7779 2.38411 98.7779 1.85961V1.09331C98.7779 0.567114 98.3487 0.141389 97.822 0.141389ZM8.62215 20.7703C8.57427 21.0445 8.53494 21.3169 8.53494 21.5962C8.53494 23.0828 9.20871 24.515 10.2861 25.5316L11.0317 26.2366H1.2722C0.632629 26.2366 0.124733 26.6708 0.0187076 27.2975C-0.090738 27.9497 0.276931 28.4946 0.889142 28.7041C1.31495 28.8233 1.75787 28.905 2.19736 28.9902C3.4765 29.2388 5.36273 29.5794 6.11517 30.7544C6.65897 31.6024 6.53756 32.7127 6.30328 33.6408L3.31917 45.5066C3.25077 45.8659 3.35509 46.2423 3.59279 46.5283C3.83562 46.8195 4.18961 46.9864 4.56925 46.9864H4.81037C5.42087 46.9864 5.94587 46.5522 6.05702 45.9545C6.38878 44.1766 6.93601 42.4329 7.45759 40.7027C7.8834 39.2825 8.393 37.8623 8.70595 36.4131C9.20187 34.1074 10.6794 30.1141 12.9948 29.0907C13.2924 28.9783 13.5865 28.871 13.8824 28.7654C14.2141 28.6496 14.5425 28.5236 14.8588 28.3823C15.4129 28.0894 15.6951 27.4525 15.7019 26.8394C15.707 26.4154 15.5651 25.3647 15.0179 25.2966C13.8995 25.1604 12.9111 24.6665 12.1757 23.81C11.7807 23.3502 11.36 22.6248 11.2762 22.0185L11.2728 21.9913V21.964C11.2728 21.7614 11.2728 21.557 11.3224 21.351L16.3432 5.22114L27.2365 45.8676C27.3596 46.5266 27.9342 46.9864 28.596 46.9864C28.9807 46.9864 29.3416 46.8161 29.5878 46.5215C29.8307 46.2303 29.935 45.8472 29.8666 45.4811L18.1029 1.05925C17.9883 0.451317 17.4684 0.0136719 16.8528 0.0136719H16.2645C15.6523 0.0136719 15.1154 0.444505 15.0042 1.04733L14.9991 1.07287L8.62215 20.7703ZM146.512 0.141389H123.242C122.716 0.141389 122.286 0.568817 122.286 1.09331V1.85961C122.286 2.38411 122.716 2.81153 123.242 2.81153H133.511V45.7024C133.511 46.2269 133.941 46.6527 134.467 46.6527H135.287C135.815 46.6527 136.244 46.2269 136.244 45.7024V2.81153H146.512C147.04 2.81153 147.468 2.38411 147.468 1.85961V1.09331C147.468 0.568817 147.04 0.141389 146.512 0.141389ZM167.173 0.141389C163.836 0.141389 160.62 1.00306 158.236 3.4399C155.833 5.89719 155.043 9.23657 155.043 12.5777V34.2692C155.043 37.5966 155.842 40.9071 158.236 43.3541C160.62 45.7927 163.835 46.6544 167.173 46.6544C170.538 46.6544 173.772 45.7859 176.206 43.3644C178.648 40.9343 179.458 37.612 179.458 34.2692V12.5777C179.458 9.22295 178.656 5.87164 176.204 3.43139C173.772 1.00987 170.538 0.141389 167.173 0.141389ZM174.418 41.4265C173.787 42.1008 173.001 42.5998 172.166 42.9931C171.359 43.3541 170.496 43.6879 169.623 43.8446C168.816 43.991 167.992 44.0336 167.173 44.0336C164.849 44.0336 162.328 43.5023 160.582 41.8743L160.563 41.8573L159.265 40.2906L159.25 40.2668C158.128 38.4668 157.778 36.3586 157.778 34.2692V12.5777C157.778 10.524 158.142 8.38171 159.212 6.59878L159.228 6.57153L160.492 5.06617L160.509 5.04914C162.338 3.31389 164.709 2.76045 167.173 2.76045C167.987 2.76045 168.808 2.80302 169.61 2.94777C170.478 3.10443 171.335 3.42969 172.141 3.7907C172.989 4.19088 173.775 4.68132 174.418 5.36588C175.154 6.15092 175.663 7.12327 176.052 8.12287C176.532 9.55671 176.724 11.0757 176.724 12.5777V34.2181C176.724 35.6826 176.551 37.1862 176.067 38.5792C175.686 39.6061 175.173 40.6227 174.418 41.4265ZM255.042 0.141389H235.207C234.68 0.141389 234.251 0.567114 234.251 1.09331V45.7007C234.251 46.2252 234.679 46.6527 235.207 46.6527H255.042C255.571 46.6527 256 46.2269 256 45.7007V44.9855C256 44.461 255.571 44.0353 255.042 44.0353H236.984V25.7291L252.275 25.7274C252.802 25.7274 253.233 25.3 253.233 24.7755V24.062C253.233 23.5358 252.802 23.1084 252.275 23.1084H236.984V2.76045H255.042C255.571 2.76045 256 2.33302 256 1.80853V1.09331C256 0.568817 255.571 0.141389 255.042 0.141389ZM219.115 0.141389H218.294C217.767 0.141389 217.338 0.568817 217.338 1.09331V41.0893L198.715 0.701643C198.558 0.362766 198.219 0.141389 197.843 0.141389H196.357C195.83 0.141389 195.401 0.568817 195.401 1.09331V45.7024C195.401 46.2252 195.83 46.6527 196.357 46.6527H197.178C197.705 46.6527 198.134 46.2269 198.134 45.7024V5.95849L216.656 46.0975C216.812 46.4347 217.152 46.6527 217.525 46.6527H219.115C219.642 46.6527 220.071 46.2269 220.071 45.7024V1.09331C220.071 0.568817 219.642 0.141389 219.115 0.141389ZM110.225 0.141389H109.406C108.878 0.141389 108.45 0.568817 108.45 1.09331V45.7024C108.45 46.2269 108.879 46.6527 109.406 46.6527H110.225C110.754 46.6527 111.183 46.2269 111.183 45.7024V1.09331C111.183 0.568817 110.754 0.141389 110.225 0.141389ZM51.3213 0.141389H40.6606C40.1339 0.141389 39.7047 0.568817 39.7047 1.09331V45.7024C39.7047 46.2269 40.1356 46.6527 40.6606 46.6527H41.4815C42.0082 46.6527 42.4374 46.2252 42.4374 45.7024V2.81153H51.3213C53.7342 2.81153 56.4721 3.18787 58.3036 4.90099C60.0752 6.55961 60.513 9.03393 60.513 11.3516V15.1797C60.513 16.5028 60.3489 17.8805 59.8632 19.1202C59.4784 20.0977 58.8183 20.9389 57.9736 21.5656C56.9595 22.3148 55.7436 22.7286 54.5175 22.9739C54.0728 23.0624 53.7479 23.4558 53.7479 23.907V24.6223C53.7479 25.0701 54.0728 25.4652 54.5123 25.5554C58.7414 26.4188 60.513 29.0498 60.513 33.2474V45.7024C60.513 46.2269 60.944 46.6527 61.4707 46.6527H62.2898C62.8182 46.6527 63.2475 46.2269 63.2475 45.7024V33.2474C63.2475 29.7889 62.2282 26.584 59.2117 24.6052L58.6918 24.2646L59.2099 23.9224C62.2419 21.9181 63.2475 18.657 63.2475 15.1797V11.3516C63.2475 3.65277 58.8098 0.141389 51.3213 0.141389Z" fill="black"/>
</g>
<defs>
<clipPath id="clip0_232_397">
<rect width="256" height="47" fill="white"/>
</clipPath>
</defs>
</svg>
